<?xml version="1.0" encoding="UTF-8" standalone="no"?>
<!-- Created with Inkscape (http://www.inkscape.org/) -->

<svg
   version="1.1"
   id="svg2"
   width="926.36395"
   height="409.17007"
   viewBox="0 0 926.36394 409.17007"
   sodipodi:docname="logo_3ia.svg"
   inkscape:version="1.2 (dc2aedaf03, 2022-05-15)"
   xmlns:inkscape="http://www.inkscape.org/namespaces/inkscape"
   xmlns:sodipodi="http://sodipodi.sourceforge.net/DTD/sodipodi-0.dtd"
   xmlns="http://www.w3.org/2000/svg"
   xmlns:svg="http://www.w3.org/2000/svg">
  <defs
     id="defs6">
    <clipPath
       clipPathUnits="userSpaceOnUse"
       id="clipPath18">
      <path
         d="m 65.611,286.303 c 0,-93.126 75.495,-168.623 168.623,-168.623 v 0 c 93.13,0 168.625,75.497 168.625,168.623 v 0 c 0,93.13 -75.495,168.624 -168.625,168.624 v 0 c -93.128,0 -168.623,-75.494 -168.623,-168.624"
         id="path16" />
    </clipPath>
    <clipPath
       clipPathUnits="userSpaceOnUse"
       id="clipPath58">
      <path
         d="M 0,0 H 841.89 V 595.276 H 0 Z"
         id="path56" />
    </clipPath>
    <clipPath
       clipPathUnits="userSpaceOnUse"
       id="clipPath82">
      <path
         d="M 0,0 H 841.89 V 595.276 H 0 Z"
         id="path80" />
    </clipPath>
  </defs>
  <sodipodi:namedview
     id="namedview4"
     pagecolor="#ffffff"
     bordercolor="#666666"
     borderopacity="1.0"
     inkscape:showpageshadow="2"
     inkscape:pageopacity="0.0"
     inkscape:pagecheckerboard="0"
     inkscape:deskcolor="#d1d1d1"
     showgrid="false"
     inkscape:zoom="0.55223537"
     inkscape:cx="272.52873"
     inkscape:cy="140.33871"
     inkscape:window-width="1920"
     inkscape:window-height="1019"
     inkscape:window-x="0"
     inkscape:window-y="30"
     inkscape:window-maximized="1"
     inkscape:current-layer="g10">
    <inkscape:page
       x="0"
       y="0"
       id="page8"
       width="926.36395"
       height="409.17007" />
  </sodipodi:namedview>
  <g
     id="g10"
     inkscape:groupmode="layer"
     inkscape:label="Page 1"
     transform="matrix(1.3333333,0,0,-1.3333333,-87.481331,566.07674)">
    <g
       id="g12">
      <g
         id="g14"
         clip-path="url(#clipPath18)">
        <g
           id="g20"
           transform="translate(407.0493,259.0947)">
          <path
             d="m 0,0 v -45.316 l -343.122,-2.365 v 66.793 h 4.728 v 7.091 h 2.857 v 29.546 l 4.628,3.643 h 6.303 V 26.991 h 4.333 v -6.5 h 3.94 v -19.5 h 2.757 v 16.152 l -0.394,5.909 h 3.546 v 3.151 h 3.151 v 12.607 1.969 1.97 h 3.94 v 15.363 l -0.395,3.546 1.97,1.969 7.091,-3.742 V 41.567 l 3.939,-1.182 v -2.758 h 2.364 V 23.445 l 7.879,-3.938 v -5.909 l 1.576,-2.365 V -4.623 h 3.151 v 18.614 h 7.485 l -0.394,3.94 3.545,-0.788 11.425,8.272 13,-7.878 v -3.546 h 8.273 V 0.203 h 2.757 l 0.985,55.546 2.954,6.303 2.364,-5.121 1.576,-57.121 h 2.758 v 6.697 l 6.302,7.484 4.728,-3.151 h 16.545 v 3.939 l 3.152,1.182 v 9.849 c 0,0 1.97,6.302 5.515,6.302 3.545,0 5.811,-6.697 5.811,-6.697 V 14.779 h 2.855 V 9.658 h 16.94 l 3.939,3.94 6.698,-5.911 V -2.555 h 3.151 l 1.576,7.092 -0.394,22.061 -1.182,3.545 1.576,3.151 v 7.091 l 1.575,8.667 c 0,0 0.591,3.939 2.364,3.939 1.773,0 2.757,-3.545 2.757,-3.545 l 1.183,-9.061 v -7.878 l 2.363,-3.153 -2.363,-3.151 V 5.324 l 2.363,-6.303 h 2.364 v 35.75 l 3.151,2.069 v 5.515 h 5.515 l 3.152,-3.939 V 32.9 l 1.576,-1.969 V 0 l 15.196,0.561 v 12.626 c 0,0 -8.296,2.646 -7.094,7.497 0,0 -4.33,1.802 -0.481,7.695 0,0 -4.729,10.863 3.087,10.622 0,0 4.93,5.33 10.662,1.963 0,0 5.971,-1.963 5.971,-7.013 0,0 4.45,-5.213 1.925,-10.101 0,0 0.481,-3.648 -3.969,-6.775 0,0 -1.121,-3.607 -3.927,-3.607 V 1.123 l 17.276,5.61 v 27.218 c 0,0 -9.86,0.159 -8.177,8.377 0,0 -6.013,4.528 -2.646,10.983 0,0 -3.775,-2.717 -6.253,7.576 -1.042,4.328 2.886,9.097 6.253,9.379 0,0 -0.079,9.139 7.215,6.493 0,0 3.608,11.064 16.354,0.241 0,0 14.15,0.801 12.266,-12.467 0,0 3.448,-6.734 -3.849,-14.589 0,0 4.65,-4.931 -2.165,-9.5 0,0 -1.201,-8.217 -10.461,-6.493 V 8.136 l 23.569,5.051 v 18.558 c 0,0 -9.5,-2.003 -5.411,21.166 2.538,14.378 6.253,39.681 6.253,39.681 0,0 9.86,-18.518 9.821,-42.087 -0.032,-18.278 -4.771,-19.241 -4.771,-19.241 V 14.429 l 14.31,3.128 v 17.515 c 0,0 -7.816,0.282 -4.929,7.015 0,0 -6.734,6.012 0.239,14.43 0,0 -3.406,10.341 3.608,10.582 0,0 0.722,5.05 6.493,5.291 6.645,0.277 12.587,-4.569 10.022,-11.303 0,0 6.894,1.283 2.525,-10.823 0,0 4.769,-2.886 -1.965,-8.177 0,0 -4.328,-9.379 -8.417,-6.252 V 19.641 l 19.08,5.371 z"
             style="fill:#000000;fill-opacity:1;fill-rule:nonzero;stroke:none"
             id="path22" />
        </g>
        <g
           id="g24"
           transform="translate(59.6709,244.5459)">
          <path
             d="m 0,0 c 0,0 97.475,-59.872 204.141,-13.025 106.667,46.845 175.089,0.328 175.089,0.328 l -0.85,-24.317 c 0,0 -68.421,46.518 -175.087,-0.329 C 96.626,-84.188 -0.849,-24.316 -0.849,-24.316 Z"
             style="fill:#00aeef;fill-opacity:1;fill-rule:nonzero;stroke:none"
             id="path26" />
        </g>
        <g
           id="g28"
           transform="translate(58.2363,221.6641)">
          <path
             d="m 0,0 c 0,0 97.475,-59.872 204.142,-13.025 106.666,46.844 175.088,0.328 175.088,0.328 l -0.849,-24.317 c 0,0 -68.422,46.517 -175.088,-0.33 C 96.626,-84.188 -0.849,-24.316 -0.849,-24.316 Z"
             style="fill:#ffffff;fill-opacity:1;fill-rule:nonzero;stroke:none"
             id="path30" />
        </g>
        <g
           id="g32"
           transform="translate(58.2363,221.6641)">
          <path
             d="m 0,0 c 0,0 97.475,-59.872 204.142,-13.025 106.666,46.844 175.088,0.328 175.088,0.328 l -0.849,-24.317 c 0,0 -68.422,46.517 -175.088,-0.33 C 96.626,-84.188 -0.849,-24.316 -0.849,-24.316 Z"
             style="fill:none;stroke:#00aeef;stroke-width:4;stroke-linecap:butt;stroke-linejoin:miter;stroke-miterlimit:4;stroke-dasharray:none;stroke-opacity:1"
             id="path34" />
        </g>
        <g
           id="g36"
           transform="translate(58.2363,174.6006)">
          <path
             d="m 0,0 c 0,0 97.475,-59.872 204.142,-13.025 106.666,46.844 175.088,0.328 175.088,0.328 l -0.849,-24.317 c 0,0 -68.422,46.517 -175.088,-0.33 C 96.626,-84.188 -0.849,-24.316 -0.849,-24.316 Z"
             style="fill:#ffffff;fill-opacity:1;fill-rule:nonzero;stroke:none"
             id="path38" />
        </g>
        <g
           id="g40"
           transform="translate(58.2363,174.6006)">
          <path
             d="m 0,0 c 0,0 97.475,-59.872 204.142,-13.025 106.666,46.844 175.088,0.328 175.088,0.328 l -0.849,-24.317 c 0,0 -68.422,46.517 -175.088,-0.33 C 96.626,-84.188 -0.849,-24.316 -0.849,-24.316 Z"
             style="fill:none;stroke:#00aeef;stroke-width:4;stroke-linecap:butt;stroke-linejoin:miter;stroke-miterlimit:4;stroke-dasharray:none;stroke-opacity:1"
             id="path42" />
        </g>
        <g
           id="g44"
           transform="translate(56.8018,198.8506)">
          <path
             d="m 0,0 c 0,0 97.475,-59.872 204.142,-13.024 106.666,46.844 175.088,0.328 175.088,0.328 l -0.849,-24.317 c 0,0 -68.422,46.517 -175.088,-0.33 C 96.626,-84.188 -0.849,-24.316 -0.849,-24.316 Z"
             style="fill:#00aeef;fill-opacity:1;fill-rule:nonzero;stroke:none"
             id="path46" />
        </g>
        <g
           id="g48"
           transform="translate(56.8018,151.7881)">
          <path
             d="m 0,0 c 0,0 97.475,-59.872 204.142,-13.025 106.666,46.844 175.088,0.328 175.088,0.328 l -0.849,-24.317 c 0,0 -68.422,46.517 -175.088,-0.33 C 96.626,-84.188 -0.849,-24.316 -0.849,-24.316 Z"
             style="fill:#00aeef;fill-opacity:1;fill-rule:nonzero;stroke:none"
             id="path50" />
        </g>
      </g>
    </g>
    <g
       id="g52">
      <g
         id="g54"
         clip-path="url(#clipPath58)">
        <g
           id="g60"
           transform="translate(176.8628,371.9663)">
          <path
             d="m 0,0 c 0,0 -7.427,30.809 7.446,46.172 14.874,15.362 13.286,-1.673 13.286,-1.673 0,0 0.01,-9.51 6.465,-17.672 6.457,-8.162 -1.037,-6.781 -1.037,-6.781 0,0 14.957,-2.545 11.193,-22.982 -3.764,-20.437 -29.542,-8.575 -29.542,-8.575 0,0 -5.9,2.228 -7.811,11.511"
             style="fill:#ffcb05;fill-opacity:1;fill-rule:nonzero;stroke:none"
             id="path62" />
        </g>
        <g
           id="g64"
           transform="translate(189.1191,372.1182)">
          <path
             d="m 0,0 c 0,0 -22.272,22.458 -40.626,21.379 -18.353,-1.08 -3.816,-9.733 -3.816,-9.733 0,0 7.766,-5.424 11.915,-14.34 4.15,-8.916 5.944,-3.178 5.944,-3.178 0,0 -3.757,-11.333 14.408,-20.488 18.164,-9.153 18.531,14.641 18.531,14.641 0,0 0.483,5.168 -6.356,11.719"
             style="fill:#ffcb05;fill-opacity:1;fill-rule:nonzero;stroke:none"
             id="path66" />
        </g>
      </g>
    </g>
    <text
       xml:space="preserve"
       transform="matrix(1,0,0,-1,445.2393,194.4492)"
       style="font-variant:normal;font-weight:bold;font-stretch:normal;font-size:71.8666px;font-family:Lato;-inkscape-font-specification:Lato-Bold;writing-mode:lr-tb;fill:#000000;fill-opacity:1;fill-rule:nonzero;stroke:none"
       id="text70"><tspan
         x="0 48.150623 105.57204 159.90318 182.4693 230.61992 271.7276"
         y="0"
         sodipodi:role="line"
         id="tspan68">CONICET</tspan></text>
    <text
       xml:space="preserve"
       transform="matrix(1,0,0,-1,445.2393,124.3074)"
       style="font-variant:normal;font-weight:normal;font-stretch:normal;font-size:71.8666px;font-family:Lato;-inkscape-font-specification:Lato-Regular;writing-mode:lr-tb;fill:#000000;fill-opacity:1;fill-rule:nonzero;stroke:none"
       id="text74"><tspan
         x="0 66.835938 135.46854 187.8593 251.17377"
         y="0"
         sodipodi:role="line"
         id="tspan72">UNSAM</tspan></text>
    <g
       id="g76">
      <g
         id="g78"
         clip-path="url(#clipPath82)">
        <path
           d="m 483.943,402.286 h -32.306 v -28.579 h 32.306 z m 0,0.285 h -32.306 v -139.15 h 32.306 z m 121.714,-0.285 h -32.306 v -28.579 h 32.306 z m 0,0.285 h -32.306 v -139.15 h 32.306 z m -60.571,-0.285 h -32.305 v -28.579 h 32.305 z m 0,0.285 h -32.305 v -139.15 h 32.305 z m 161.71,-0.716 H 673.923 L 620.335,263.421 h 25.083 c 2.661,0 4.908,0.712 6.745,2.138 1.837,1.424 3.072,3.023 3.706,4.797 l 8.171,24.134 h 52.639 l 8.17,-24.134 c 0.697,-2.028 1.947,-3.689 3.755,-4.988 1.803,-1.299 4.098,-1.947 6.887,-1.947 h 24.893 z m -22.612,-47.791 c 0.949,2.406 1.962,5.256 3.04,8.55 1.076,3.293 2.121,6.872 3.134,10.738 1.078,-3.802 2.17,-7.333 3.28,-10.595 1.106,-3.262 2.074,-6.097 2.897,-8.503 l 12.733,-37.911 h -37.817 z"
           style="fill:#000000;fill-opacity:1;fill-rule:nonzero;stroke:none"
           id="path84" />
      </g>
    </g>
  </g>
</svg>
